# xmcd
#
# Track frame offsets:
#	150
#	8056
#	40784
#	73844
#	108702
#	119380
#	138801
#	169759
#	219589
#	232705
#
# Disc length: 3553 seconds
#
# Revision: 15
# Processed by: cddbd v1.5.2PL0 Copyright (c) Steve Scherf et al.
# Submitted via: Jack! The Knife 20 Magnifico
#
DISCID=820ddf0a
DTITLE=Cradle Of Filth - Cruelty And The Beast
DYEAR=1998
DGENRE=Metal
TTITLE0=Once Upon Atrocity
TTITLE1=Thirteen Autumns And A Widow
TTITLE2=Cruelty Brought Thee Orchids
TTITLE3=Beneath The Howling Stars
TTITLE4=Venus In Fear
TTITLE5=Desire In Violent Overture
TTITLE6=The Twisted Nails Of Faith
TTITLE7=Bathory Aria
TTITLE8=Portrait Of The Dead Countess
TTITLE9=Lustmord And Wargasm (The Lick Of Carnivorous Winds)
EXTD=Cradle Of Filth and Jan Peter Genkel
EXTT0=Filth, Anstis, Pyres, Eaglestone, Smith, Barker
EXTT1=Filth, Anstis, Pyres, Eaglestone, Smith, Barker
EXTT2=Filth, Anstis, Pyres, Eaglestone, Smith, Barker
EXTT3=Filth, Anstis, Pyres, Eaglestone, Smith, Barker
EXTT4=Filth, Anstis, Pyres, Eaglestone, Smith, Barker
EXTT5=Filth, Anstis, Pyres, Eaglestone, Smith, Barker
EXTT6=Filth, Anstis, Pyres, Eaglestone, Smith, Barker
EXTT7=Filth, Anstis, Pyres, Eaglestone, Smith, Barker
EXTT8=Filth, Anstis, Pyres, Eaglestone, Smith, Barker
EXTT9=Filth, Anstis, Pyres, Eaglestone, Smith, Barker
PLAYORDER=
